<svg version="1.1" id="Layer_1" xmlns="http://www.w3.org/2000/svg" xmlns:xlink="http://www.w3.org/1999/xlink" x="0px" y="0px"
	 width="100%" viewBox="0 0 720 672" enable-background="new 0 0 720 672" xml:space="preserve">
<path fill="#000000" opacity="1.000000" stroke="none" 
	d="
M504.531342,1.000002 
	C510.246155,1.746839 515.481079,2.588653 520.741821,3.212065 
	C525.399658,3.764026 526.130920,5.739356 524.114380,9.885148 
	C516.755249,25.015278 510.260712,40.486893 505.516083,56.688683 
	C499.135559,78.476578 495.265594,100.620392 494.306976,123.322678 
	C494.031708,129.841476 495.727966,134.460526 501.034851,138.760178 
	C526.548950,159.431885 548.773987,183.195862 566.964905,210.656525 
	C583.255127,235.248016 593.596924,262.343628 601.168030,290.631775 
	C601.842834,293.152924 602.738281,295.317200 604.786499,296.964417 
	C640.347534,325.563263 658.876160,364.107758 669.021667,407.451996 
	C670.181580,412.407471 672.392090,416.006653 676.186462,419.408508 
	C694.812866,436.108002 708.292358,456.652802 719.489075,478.819244 
	C719.788147,479.411255 720.171204,479.960785 720.757568,480.765076 
	C721.000000,494.687561 721.000000,508.375122 720.840820,522.836182 
	C717.352173,530.544617 713.159790,536.913269 708.442993,542.992676 
	C700.942444,552.660034 691.339966,556.317017 679.384338,553.778809 
	C677.897156,553.463074 676.028992,552.807129 675.187561,554.205078 
	C672.764465,558.230957 668.285767,558.591248 664.709290,560.429077 
	C658.223389,563.762024 651.102966,565.682190 643.937256,563.810059 
	C637.469360,562.120178 632.696777,563.210449 627.133179,567.207764 
	C612.033752,578.056396 591.190002,572.754150 582.805908,556.647461 
	C581.858276,554.827087 580.427246,553.959473 578.768433,553.183044 
	C566.769043,547.566528 556.459961,539.295654 545.553955,531.969910 
	C541.599915,529.313904 540.263245,525.475586 541.037659,520.651306 
	C545.069824,495.535736 552.948914,471.887329 567.482544,450.775543 
	C570.029785,447.075378 569.701294,444.614685 565.619263,442.466766 
	C562.834900,441.001709 560.231018,439.143188 557.705933,437.247986 
	C553.889099,434.383209 551.067627,434.892792 549.047363,439.306458 
	C548.563843,440.362854 547.905701,441.338104 547.352661,442.364075 
	C522.916382,487.696442 488.796875,524.615540 448.436737,556.089539 
	C446.389557,557.686035 444.875244,559.399353 443.922241,561.841614 
	C433.968628,587.350037 417.800110,608.879211 400.310333,629.533020 
	C386.367615,645.998047 370.255859,660.127930 353.000000,673.000000 
	C346.645599,673.000000 340.291199,673.000000 333.730133,672.778320 
	C378.852234,647.424438 417.392242,592.259521 422.944702,570.052917 
	C416.970062,572.704834 415.218994,579.148804 410.519867,583.270935 
	C407.728973,578.715027 404.446411,580.416870 401.184723,582.386108 
	C398.623810,583.932251 396.045532,585.397278 393.320099,586.681335 
	C373.277161,596.124207 352.907959,604.605286 331.208221,609.591370 
	C326.076080,610.770508 323.246704,614.816833 324.809479,619.759216 
	C326.859161,626.241394 325.583527,632.177063 324.363800,638.386780 
	C323.735809,641.584045 322.614288,645.572998 325.214203,647.959106 
	C329.102509,651.527527 330.179291,656.014648 331.545959,660.635376 
	C333.016449,665.607117 332.161896,667.546997 327.199127,669.248718 
	C321.797180,671.101074 316.343964,671.908569 311.097290,669.533447 
	C310.134979,671.138428 310.922882,672.038574 311.000000,673.000000 
	C307.969391,673.000000 304.938812,673.000000 301.342621,672.551697 
	C300.113556,666.362671 301.061279,660.883118 303.161652,655.510864 
	C306.553284,646.835815 309.840698,638.118652 313.059174,629.377747 
	C314.762909,624.750671 316.725464,620.179810 317.464508,615.379761 
	C315.750214,613.801208 314.133423,614.514771 312.519348,614.741333 
	C305.235779,615.763733 297.924805,615.788330 290.658051,614.748047 
	C276.077148,612.660706 263.273132,605.696106 250.124283,599.700623 
	C248.244736,598.843506 246.539078,598.414734 244.230667,598.445923 
	C240.765213,598.492798 236.149826,598.382019 234.186417,594.435303 
	C231.478683,588.992737 227.385468,585.190552 222.372406,582.009521 
	C219.436615,580.146545 216.705002,577.880859 214.721603,574.920776 
	C212.173767,571.118164 208.858292,569.180481 204.336227,567.442383 
	C175.176071,556.233826 150.892502,538.596924 134.629547,511.242645 
	C133.340012,509.073669 131.857727,507.738373 129.302322,507.293030 
	C119.557922,505.594818 110.478477,501.914734 101.513885,497.847198 
	C71.635818,484.290405 49.680588,461.587891 30.020548,436.197784 
	C19.196201,422.218628 9.955245,407.204163 1.000000,392.000000 
	C1.000000,392.000000 1.000000,391.500000 1.000000,391.250000 
	C3.620534,390.707306 4.881501,392.657990 6.208484,394.312225 
	C19.233910,410.549683 32.144215,426.880035 45.232887,443.066162 
	C62.913342,464.930725 84.263626,482.127411 110.152267,493.439545 
	C111.365356,493.969604 112.631599,494.393890 113.902672,494.766602 
	C114.332367,494.892578 114.853622,494.706177 115.867867,494.049225 
	C70.715256,471.218079 40.052399,433.245911 9.117986,394.171417 
	C13.689169,393.398560 16.171188,393.645721 17.142544,397.913361 
	C18.022007,401.777222 20.903519,404.502838 24.142302,406.701599 
	C35.844490,414.645905 47.767895,422.330353 59.346149,430.369629 
	C75.128975,441.328339 91.640862,450.887909 108.088348,460.661102 
	C112.663757,463.379791 114.523132,467.743591 113.947227,473.031250 
	C113.577713,476.424042 112.736267,480.250763 117.635742,480.685730 
	C122.270866,481.097290 123.609062,477.095703 124.832726,473.706299 
	C130.365677,458.380676 131.451691,441.721313 139.114517,426.997742 
	C146.998627,411.849060 156.693069,398.022064 167.949524,385.216003 
	C174.232864,378.067688 181.317795,371.736359 187.938278,364.935577 
	C188.491470,364.367279 188.811905,363.572388 189.229233,362.900879 
	C188.032455,360.493561 185.643921,360.309113 183.756790,359.543579 
	C154.845657,347.815094 129.077209,331.245056 106.795486,309.400146 
	C98.934242,301.693054 92.038155,293.144257 86.151146,283.763489 
	C81.075211,275.675171 80.004173,267.457184 82.121384,258.071289 
	C94.822998,201.763229 127.015755,158.492493 171.784637,123.767677 
	C204.486389,98.402695 241.655426,82.635185 282.249268,75.006058 
	C290.051392,73.539749 298.004944,72.377724 306.022797,72.683823 
	C310.072296,72.838409 313.432159,71.618401 316.561218,69.020180 
	C330.687103,57.290646 345.471344,46.456913 361.582367,37.589588 
	C391.845306,20.933229 423.775757,8.798610 457.915039,2.902839 
	C462.972168,2.029486 468.145172,1.826992 473.632263,1.157064 
	C484.020905,1.000000 494.041779,1.000000 504.531342,1.000002 
M167.395813,334.067993 
	C176.123047,338.600281 184.936676,342.941162 194.205780,346.286438 
	C220.407547,355.742828 245.823502,355.455963 270.841309,341.702484 
	C286.515869,333.085449 301.445251,323.451630 315.726990,312.795502 
	C334.338135,298.909058 350.997070,282.811432 367.095520,266.130066 
	C370.780884,262.311310 375.056946,259.597595 380.257812,258.409180 
	C389.364441,256.328247 399.155518,261.548431 401.386047,270.116913 
	C397.663239,267.689026 394.461945,264.444275 389.382416,266.109894 
	C392.047760,277.472565 391.672333,288.698914 390.263794,299.999268 
	C388.108337,317.291779 381.203979,331.901550 367.200897,342.742249 
	C354.666199,352.446228 340.365173,358.836365 325.634735,364.184784 
	C309.973206,369.871338 293.451263,372.448364 277.345398,376.541107 
	C267.212830,379.115997 257.573486,378.559937 248.225540,373.771393 
	C247.361755,373.328949 246.470627,372.433655 244.385712,373.549377 
	C282.623505,396.832947 323.406952,409.224365 367.485291,411.387115 
	C342.711823,417.961823 318.199493,417.985992 293.618896,408.907410 
	C293.793274,410.528961 293.718140,411.068512 293.918823,411.470245 
	C294.587738,412.809265 295.356995,414.098053 296.085327,415.407471 
	C309.715546,439.911896 329.367645,458.476624 352.968567,473.170746 
	C357.412964,475.937866 363.273407,477.960175 359.921173,485.430298 
	C358.983887,485.716095 359.239471,482.852478 357.404327,483.736664 
	C358.983673,487.495361 360.119049,491.403046 362.135986,494.784973 
	C370.068756,508.086487 368.698212,520.827271 360.323730,533.241150 
	C358.206970,536.378906 358.073914,538.972900 360.223816,542.316101 
	C365.553833,550.604492 366.112244,559.141968 360.167877,567.537415 
	C355.035187,574.786499 350.840424,582.732300 344.193542,588.863220 
	C343.506897,589.496521 342.007538,589.958496 342.680084,591.658081 
	C343.326263,591.658081 344.004456,591.779785 344.622681,591.638733 
	C349.487061,590.529236 354.387909,589.540771 359.188477,588.196838 
	C385.893280,580.720520 409.670746,567.437683 431.451935,550.612427 
	C463.283447,526.023682 491.362518,497.681091 514.314514,464.533722 
	C520.054321,456.244263 526.573364,448.204956 524.361023,436.480804 
	C523.457642,431.693359 524.004272,426.254120 524.101074,421.114655 
	C524.173218,417.285736 522.275757,414.163452 519.137390,413.117737 
	C511.409027,410.542664 513.139160,402.853973 509.675659,397.875458 
	C515.951965,399.809570 521.882568,401.921631 527.414978,404.799316 
	C544.718994,413.800140 561.658386,423.432526 576.748474,435.954620 
	C578.937744,437.771301 580.818298,438.460663 583.889465,437.275848 
	C588.623169,435.449585 592.571472,432.381622 597.047363,430.208710 
	C598.461853,429.522034 599.794617,427.717529 601.276367,429.872009 
	C602.512817,431.669769 602.161804,433.592896 600.264771,434.591644 
	C597.430298,436.083923 595.956482,438.695892 594.174866,441.069733 
	C590.375854,446.131592 586.795044,451.364288 582.854492,456.311676 
	C569.623047,472.923706 562.109680,492.248962 556.004761,512.261169 
	C555.470703,514.011780 555.196838,515.580688 556.657898,517.347595 
	C562.575684,524.504089 568.352722,531.728394 579.385559,531.921875 
	C580.869934,526.819458 583.047668,521.304077 585.227966,515.792053 
	C586.202087,513.329285 588.772949,510.235962 586.437378,507.993195 
	C583.958130,505.612488 580.507202,507.540894 577.480591,508.435944 
	C573.938904,509.483398 570.749939,511.899475 566.277222,511.584656 
	C568.155151,507.867676 572.189697,507.295746 574.333130,504.376678 
	C570.888489,503.413147 571.677917,501.804169 573.479248,499.919983 
	C577.670959,495.535461 587.067810,493.802032 592.639404,496.449677 
	C599.939087,499.918579 601.080322,503.115295 597.805481,510.332336 
	C595.191345,516.093262 592.505615,521.837769 590.249207,527.741516 
	C585.945068,539.002869 588.144348,548.144165 596.904541,553.231445 
	C610.598450,561.183899 619.116821,560.709412 627.093567,551.770874 
	C633.965759,544.070068 641.050415,536.548523 647.670471,528.637573 
	C650.771912,524.931274 654.218079,520.864685 651.591919,515.216492 
	C651.285217,514.556824 651.364380,513.374329 651.770935,512.781555 
	C654.676941,508.545166 656.654724,503.996002 656.144531,497.624695 
	C664.743286,504.038361 673.152527,506.258575 682.495544,505.043427 
	C689.343262,504.152802 693.431824,499.187042 692.792725,492.246094 
	C692.634399,490.526306 691.289307,488.811951 692.872375,486.530853 
	C696.443909,489.511871 698.901184,493.173401 700.289062,497.352814 
	C701.643799,501.432739 704.069275,501.656982 707.171143,499.984589 
	C712.364319,497.184601 713.261719,493.046234 709.650696,488.437012 
	C706.045837,483.835724 702.783508,479.024445 699.730835,474.047089 
	C689.675598,457.652313 678.172668,442.275635 664.566284,428.738068 
	C659.416565,423.614410 656.460266,418.063080 654.406189,411.482605 
	C651.580200,402.428955 648.580566,393.427490 645.528931,384.446625 
	C636.127380,356.778198 621.031616,332.761566 599.327515,313.064209 
	C589.921143,304.527527 580.016968,296.638214 568.121216,291.743256 
	C556.131714,286.809784 543.914185,284.669067 531.176453,288.953827 
	C529.668640,289.461060 527.884888,290.826691 525.901794,288.984955 
	C527.692627,286.018005 530.748657,285.061768 533.586487,283.892181 
	C541.958374,280.441925 550.719421,280.186493 559.613281,280.697784 
	C566.486084,281.092896 569.036133,277.984863 566.696106,271.512360 
	C563.814453,263.541748 560.343445,255.792953 555.952820,248.471893 
	C550.891174,240.031815 547.822876,230.486572 541.549377,222.691162 
	C558.528687,242.433929 571.755920,264.475220 582.277222,288.235016 
	C581.731079,285.253662 580.806763,282.442810 580.009094,279.596497 
	C571.464172,249.106094 556.552490,221.989685 536.226013,197.851868 
	C498.473145,153.020233 450.683594,122.649719 396.362549,102.059952 
	C359.113037,87.940933 320.753662,83.873634 281.530701,92.102318 
	C239.477036,100.924858 201.710678,118.699913 169.605270,147.586838 
	C145.380844,169.382843 124.388451,193.740311 111.123993,223.992432 
	C105.429665,236.979431 100.497444,250.211899 97.604210,264.119598 
	C95.742714,273.067749 98.870361,277.110748 107.747337,277.836151 
	C110.732979,278.080170 113.704788,278.491486 116.684189,278.814636 
	C118.828194,279.047180 120.462585,280.234833 119.913528,282.361908 
	C118.484344,287.898712 121.815758,291.225220 125.600616,293.474548 
	C139.102692,301.498657 152.128113,310.748047 168.572296,312.162659 
	C171.331375,312.400024 174.587784,312.373535 176.933945,316.271027 
	C151.597977,319.531189 132.773712,307.734528 115.173149,292.606110 
	C121.123878,302.873047 147.123398,323.309998 167.395813,334.067993 
M246.392242,457.163147 
	C241.451309,451.116791 235.976608,445.926514 227.781723,444.635010 
	C225.945099,444.345581 223.098892,443.946747 223.610916,441.356140 
	C224.140945,438.674408 226.957672,439.113434 229.077667,439.366638 
	C234.266098,439.986237 239.317886,441.567719 243.737976,444.120728 
	C249.305939,447.336670 253.998795,446.437439 258.848175,443.116638 
	C267.574310,437.141083 276.095764,431.040283 278.684326,419.805115 
	C282.106018,404.953949 280.252991,400.767120 266.235565,395.090729 
	C252.820358,389.658203 239.005402,385.183990 225.731750,379.443207 
	C219.310394,376.666046 213.611237,375.325653 207.365921,378.956116 
	C207.224365,379.038391 206.838089,378.699707 206.483185,378.514099 
	C206.922623,376.031708 210.668137,375.551483 210.208969,372.496552 
	C207.789276,370.010498 205.941559,371.961334 204.186691,373.364349 
	C182.708908,390.536194 164.563324,410.390472 153.181610,435.858795 
	C145.084366,453.977631 141.549530,472.664307 145.608505,492.281403 
	C150.101593,513.996582 165.809448,527.223633 182.438599,539.595093 
	C198.733688,551.717957 218.189377,558.340149 234.715530,570.382996 
	C249.498901,581.155762 267.751892,584.015686 285.810242,585.865967 
	C289.326935,586.226318 292.992279,586.023926 296.248871,587.911438 
	C293.005249,594.555115 287.098572,592.738403 281.560944,592.376648 
	C282.609894,597.598022 286.779602,596.908325 289.549225,598.025208 
	C302.292511,603.164307 314.376007,601.738037 325.471893,593.556519 
	C337.104401,584.979309 347.051117,574.740479 354.814026,562.510010 
	C358.736298,556.330383 356.984528,549.216248 350.540375,544.581604 
	C344.813171,550.994202 339.512177,557.862549 332.984619,563.565308 
	C331.300873,565.036316 329.646545,566.940979 327.000854,565.410889 
	C327.607269,562.126648 327.588318,562.110291 329.713165,559.648132 
	C339.114227,548.754578 347.222382,536.993835 353.727722,524.137512 
	C356.873566,517.920593 356.093414,512.425476 351.574707,507.067474 
	C346.945801,501.578674 341.262878,497.693268 334.894775,494.650909 
	C331.847931,493.195190 329.741638,493.671936 328.163483,497.143372 
	C322.727173,509.101593 316.863800,520.834534 307.694519,530.530273 
	C304.307739,534.111450 300.954407,537.657776 295.748901,538.067871 
	C294.950806,536.512146 295.153748,535.494690 295.662415,534.639099 
	C301.440399,524.920471 306.919891,514.999207 313.195160,505.610748 
	C316.939880,500.008209 320.143036,494.322235 321.636780,487.811890 
	C322.731018,483.042847 321.565521,478.645355 318.437042,474.690338 
	C314.088745,469.193268 308.004852,466.574219 301.817810,464.037872 
	C291.894409,459.969849 283.676147,462.082214 276.951874,470.444702 
	C268.998383,480.335907 262.761444,491.405823 255.476990,501.757080 
	C253.565887,504.472717 252.330994,508.587738 247.776428,504.772217 
	C247.264404,504.343292 245.875259,504.985962 244.888763,505.094604 
	C240.648880,505.561646 238.193878,502.106567 240.018616,498.120850 
	C241.179947,495.584229 243.255753,493.989899 245.827698,492.911011 
	C250.635071,490.894501 254.979858,488.058777 258.796875,484.551147 
	C262.486542,481.160706 265.670563,477.355988 264.878967,471.620117 
	C251.281448,473.653595 240.048904,478.666138 233.801163,491.625244 
	C231.128021,497.169861 228.006760,502.503296 224.964417,507.861877 
	C224.123215,509.343475 223.258041,511.660004 220.905975,510.482605 
	C218.695236,509.375946 219.748093,507.261719 220.314056,505.596283 
	C221.599915,501.812500 222.798004,497.968842 224.470352,494.352295 
	C228.858154,484.863556 234.361618,476.190735 243.638016,470.622620 
	C249.329193,467.206512 250.237244,463.625305 246.392242,457.163147 
M477.312805,92.790916 
	C478.858368,90.347717 479.638062,87.659950 479.950287,84.801559 
	C482.102509,65.099014 490.656494,47.042492 494.638214,27.804552 
	C495.505737,23.612896 498.831451,20.582495 501.170288,16.087503 
	C435.099884,14.512821 379.807343,39.422657 330.181061,79.684830 
	C331.692810,80.507812 332.997803,80.742287 334.282501,80.659935 
	C348.927338,79.721199 363.033569,83.078987 377.066772,86.396851 
	C395.576599,90.773117 413.351990,97.424942 430.639648,105.347923 
	C433.233551,106.536728 435.477600,107.361076 437.570221,104.365349 
	C439.077393,102.207748 441.417053,102.213158 443.903900,102.791595 
	C448.829376,103.937256 453.308899,106.042007 457.709320,108.451889 
	C463.695587,111.730217 465.712524,111.333214 470.166534,106.189896 
	C473.383575,102.474983 474.933411,97.836586 477.312805,92.790916 
M675.294617,535.807922 
	C679.817688,529.496704 684.659668,523.411438 687.038330,515.793518 
	C688.358154,511.566833 687.406189,508.865997 683.319763,509.370819 
	C676.222900,510.247498 668.808655,510.668274 662.586304,514.930603 
	C654.013367,520.802979 650.790039,530.334900 646.563293,539.100220 
	C645.458435,541.391418 645.850769,544.660217 648.807617,545.373901 
	C652.752563,546.326111 652.435303,548.755737 651.724792,551.484131 
	C658.601685,552.906250 666.251953,547.801208 675.294617,535.807922 
M285.620728,438.180969 
	C283.911438,440.000549 282.226501,441.843750 280.488342,443.635345 
	C275.231079,449.054260 269.374634,453.662354 262.514862,456.926941 
	C261.306427,457.502045 260.026489,458.285980 260.551666,459.950714 
	C261.071075,461.597015 262.409546,461.672607 263.813232,461.193604 
	C268.052704,459.746918 272.763641,460.020996 276.757324,457.712891 
	C292.046997,448.876190 306.865784,451.119690 321.021942,460.148315 
	C326.801636,463.834595 331.519348,468.971619 333.271240,476.004150 
	C335.229401,483.864716 335.149658,483.884583 343.830231,485.741852 
	C339.940826,484.813812 339.677032,481.604858 338.393982,478.670868 
	C333.441986,467.347137 326.800781,457.249268 314.169800,453.252014 
	C308.268433,451.384430 303.282104,448.429871 299.167053,443.849792 
	C296.091736,440.426941 292.896759,437.111633 289.535156,433.513031 
	C288.173401,435.149658 287.126831,436.407471 285.620728,438.180969 
M711.057312,508.983612 
	C711.364258,507.764465 712.473511,506.745300 711.805298,504.481232 
	C709.823792,509.455505 706.959045,513.058716 703.802490,516.448608 
	C702.532288,517.812744 701.327148,519.354675 699.216675,517.726196 
	C694.896484,514.392700 692.263550,517.279053 690.434021,520.608154 
	C686.707336,527.389709 685.859192,535.296570 681.435120,542.932373 
	C689.095398,541.700867 694.381409,538.714355 698.246216,533.373962 
	C703.540039,526.058716 707.710205,518.125427 711.057312,508.983612 
M346.778992,303.918884 
	C351.192230,306.924103 356.008026,308.914093 361.733734,310.263214 
	C362.209595,302.206909 361.896698,294.886627 359.091553,287.346619 
	C354.430786,290.993713 350.443207,294.220642 346.337769,297.289978 
	C343.490082,299.418976 343.271332,301.388184 346.778992,303.918884 
M324.267761,340.146515 
	C327.899902,342.631531 331.357758,345.560028 336.400360,345.082886 
	C336.661072,344.126831 336.912750,343.352325 337.082214,342.560272 
	C339.444824,331.517639 338.721985,330.358551 327.813843,328.238495 
	C325.482544,327.785370 322.734314,326.068481 320.844574,328.541107 
	C319.065979,330.868317 320.588806,333.657928 321.059021,336.218597 
	C321.345703,337.779785 322.404205,338.843018 324.267761,340.146515 
M321.468231,320.429504 
	C325.536438,322.238617 329.480621,324.319702 333.941406,325.165955 
	C336.193390,325.593170 337.665405,325.208405 337.676422,322.746521 
	C337.702423,316.934998 338.502502,311.020111 336.170502,305.432709 
	C330.467224,308.204987 326.030090,312.216431 321.276947,315.773987 
	C319.667969,316.978241 317.709930,318.368774 321.468231,320.429504 
M349.110992,312.542328 
	C347.130280,312.512909 344.458771,311.016449 343.786926,314.238251 
	C343.011292,317.957489 342.580292,321.819702 343.852295,325.533539 
	C345.177002,329.401306 348.697479,329.652618 352.014832,329.913361 
	C353.908997,330.062225 356.132324,330.678375 357.387451,328.488373 
	C360.885986,322.383942 356.924744,314.121216 349.110992,312.542328 
M366.505707,301.525787 
	C366.620911,306.744415 368.089569,311.677460 370.014862,316.441071 
	C370.971771,318.808655 372.895447,320.864532 375.750977,320.361328 
	C379.111298,319.769226 381.891022,309.123901 379.186523,306.930664 
	C375.618561,304.037201 371.727264,301.454803 366.505707,301.525787 
M334.856995,353.997894 
	C336.700562,352.951111 335.616364,352.107483 334.564728,351.534668 
	C328.753479,348.369507 322.822540,345.463043 316.249207,343.235229 
	C315.904602,347.579712 317.073242,351.228180 318.396851,354.760132 
	C319.612488,358.003998 321.920105,359.460083 325.514679,357.844421 
	C328.393585,356.550385 331.374084,355.482269 334.856995,353.997894 
M358.944366,340.304077 
	C353.909088,335.341309 347.059723,335.828430 340.512207,333.400482 
	C341.311066,337.406677 341.858398,340.500366 342.556152,343.559784 
	C343.377075,347.159149 345.332947,348.797882 349.065979,346.988617 
	C352.510101,345.319336 356.036621,343.782990 358.944366,340.304077 
M304.669678,328.433594 
	C301.438446,330.581940 297.763519,332.121735 294.456451,335.514923 
	C300.274139,337.859741 305.423828,339.851532 311.530914,340.074127 
	C310.825745,334.834320 310.999481,330.199402 308.151428,325.977692 
	C307.057129,326.786438 306.158997,327.450226 304.669678,328.433594 
M229.632553,366.781311 
	C235.127060,369.905151 240.056580,366.461914 245.965408,365.951935 
	C237.931961,360.642181 226.640793,358.291870 219.505264,360.121307 
	C222.087540,363.129395 225.599670,364.699158 229.632553,366.781311 
M297.249023,360.110046 
	C301.739868,364.929016 307.703400,365.165009 313.131012,360.570312 
	C307.799103,355.795044 300.602112,354.946014 294.398407,350.336029 
	C294.500702,354.448456 295.514465,357.019531 297.249023,360.110046 
M369.040131,283.231201 
	C366.791565,284.107849 365.828491,285.744324 368.199890,287.091614 
	C372.499268,289.534332 375.836914,293.278992 380.585632,296.137543 
	C380.776245,292.911102 380.775665,290.335144 380.253174,287.719025 
	C378.506073,278.971802 377.816833,278.643524 369.040131,283.231201 
M360.916687,319.921143 
	C359.931763,322.946472 362.732788,331.587494 365.790314,334.458801 
	C369.381866,332.069641 371.897797,328.758972 374.044617,324.817932 
	C370.128021,322.071014 365.672607,321.454407 360.916687,319.921143 
M274.992828,347.080933 
	C274.523804,347.965851 274.744141,348.876129 275.542908,349.223236 
	C279.867767,351.102814 284.136414,353.252472 289.390289,353.427917 
	C288.663879,348.913239 287.236877,345.185242 285.348114,341.003632 
	C281.724976,343.035278 278.569244,344.804840 274.992828,347.080933 
M290.777161,367.415863 
	C292.135071,366.728882 294.151520,367.442596 295.088806,365.276764 
	C291.031250,360.747131 286.029999,358.632751 279.862274,358.591705 
	C281.373779,366.413635 282.904846,367.708679 290.777161,367.415863 
M308.557312,344.703522 
	C305.242188,344.292877 301.867249,343.149963 298.171387,345.522766 
	C301.939850,349.895538 306.562439,351.441132 312.080231,352.832733 
	C311.594147,349.477692 313.108795,346.353760 308.557312,344.703522 
M264.101868,358.238220 
	C266.104095,358.417847 267.966553,360.012390 270.159607,359.061157 
	C268.016663,350.314270 265.083832,349.512268 257.137390,355.338470 
	C258.820679,357.197021 261.251160,357.246124 264.101868,358.238220 
M249.957611,362.559204 
	C253.048523,363.063110 255.755173,365.304718 259.380188,364.949341 
	C252.632584,355.607849 251.200836,355.888916 243.550644,359.569458 
	C245.091995,361.313110 247.394928,361.366425 249.957611,362.559204 
M273.105835,367.173798 
	C270.827759,366.160492 268.468750,365.675659 265.878204,365.778015 
	C267.731293,371.691254 271.850372,373.233643 277.628235,370.422760 
	C276.853180,368.758026 275.110107,368.372772 273.105835,367.173798 
z"/>
<path fill="#000000" opacity="1.000000" stroke="none" 
	d="
M271.762085,233.761139 
	C284.172882,220.026001 296.502472,206.680588 310.418213,194.977036 
	C321.124573,185.972672 333.176849,179.917282 347.745972,180.773987 
	C352.263824,181.039673 356.655396,181.942001 360.895081,183.499847 
	C362.637939,184.140228 364.450592,185.055008 364.315399,187.273560 
	C364.197601,189.206558 362.443268,189.958496 360.887299,190.506836 
	C359.497375,190.996674 357.951538,191.451736 356.518250,191.343414 
	C348.544556,190.740921 342.907776,195.222885 342.151154,203.161270 
	C341.901154,205.784134 342.111755,208.450912 342.111755,211.165634 
	C344.731323,211.513504 344.422485,207.872299 346.702576,208.078445 
	C344.905701,221.354904 343.308472,234.565308 335.303802,246.109467 
	C329.605896,254.326843 323.201447,261.006836 313.116486,263.436951 
	C309.619019,264.279724 306.192108,264.151581 302.705719,263.955322 
	C299.435089,263.771240 296.223206,262.719879 292.901886,264.308075 
	C290.737518,265.343018 288.945496,263.483276 287.796112,262.002441 
	C279.950439,251.894028 271.439240,250.525146 260.309052,257.599731 
	C252.400864,262.626343 243.395340,259.666840 237.709732,252.210297 
	C235.425797,249.214935 233.175873,246.124313 231.929016,242.411697 
	C234.075256,241.347198 234.934982,243.105377 235.796448,244.005997 
	C241.038940,249.486877 247.548431,249.627655 254.353073,248.699478 
	C256.747803,248.372849 258.741638,247.232574 260.415009,245.493958 
	C264.106232,241.658844 267.812347,237.838028 271.762085,233.761139 
M327.471252,246.935150 
	C335.976501,233.770462 336.317108,219.753662 331.737579,205.263123 
	C331.224304,203.639053 330.940796,201.587662 328.215851,201.980911 
	C320.896851,203.037170 315.921448,210.137680 317.625092,217.148849 
	C319.538025,225.021469 320.339294,232.924515 317.160278,240.677612 
	C312.385712,252.322052 299.799103,254.359344 291.579590,244.872192 
	C290.505219,243.632126 289.502716,242.329788 288.272430,240.817200 
	C285.953156,242.666199 283.418213,243.905396 281.806854,246.259018 
	C294.835571,263.247467 305.693909,264.581482 320.926727,254.057800 
	C323.406769,252.344437 325.265594,249.940811 327.471252,246.935150 
M314.433563,225.957275 
	C314.889496,224.019699 314.288147,222.334122 312.988220,220.956726 
	C310.822510,218.661987 308.811890,219.039795 307.668610,221.875137 
	C306.817474,223.986115 307.319275,226.177460 309.184875,227.687424 
	C311.184357,229.305725 312.835571,228.530746 314.433563,225.957275 
z"/>
<path fill="#000000" opacity="1.000000" stroke="none" 
	d="
M390.838806,569.940308 
	C382.619843,572.405457 375.583832,576.310852 368.734070,580.773071 
	C364.956482,583.233887 360.074554,582.809631 355.748505,583.942261 
	C354.745148,584.204956 353.778900,583.577881 353.514069,582.418274 
	C353.266693,581.334961 353.645752,580.407776 354.615143,579.866760 
	C356.647034,578.732727 358.634521,577.456909 360.785767,576.607971 
	C414.969238,555.224915 455.635651,517.942139 486.900085,469.562927 
	C488.749634,466.700867 490.791626,463.963165 492.905121,460.937042 
	C494.747681,463.355011 493.626923,465.276215 493.482605,467.162384 
	C493.200623,470.847412 491.634979,474.646942 495.443634,477.754730 
	C497.132538,479.132812 495.566528,480.815979 494.516663,482.081635 
	C481.966003,497.211914 468.510681,511.476776 454.257355,525.030762 
	C447.366272,531.583679 439.973907,537.563293 432.091400,542.619873 
	C419.248627,550.858337 407.093384,560.037170 394.435181,568.506042 
	C393.488770,569.139221 392.288635,569.393127 390.838806,569.940308 
z"/>
<path fill="#000000" opacity="1.000000" stroke="none" 
	d="
M489.666473,248.703690 
	C495.504883,229.708588 495.985901,210.304276 498.009247,191.093048 
	C501.308807,194.717346 500.364960,199.122086 500.899780,203.053940 
	C505.061920,233.654755 498.428650,261.554321 479.160248,286.083679 
	C478.128693,287.396912 477.128845,289.157349 475.182404,288.063202 
	C473.383179,287.051849 473.526245,285.099457 474.632751,283.702087 
	C482.717651,273.491669 485.517395,261.028381 489.666473,248.703690 
z"/>
<path fill="#000000" opacity="1.000000" stroke="none" 
	d="
M467.773499,257.698792 
	C464.560181,263.934265 460.947998,269.417542 455.376556,273.776245 
	C468.720490,244.414902 472.786102,213.234253 473.912903,180.929550 
	C482.197632,190.846588 478.112762,238.523499 467.773499,257.698792 
z"/>
<path fill="#000000" opacity="1.000000" stroke="none" 
	d="
M523.106567,233.163025 
	C522.950256,247.916595 520.563599,261.730774 514.113098,274.620605 
	C511.234436,280.372925 507.657593,285.625702 501.665497,289.261383 
	C513.519104,263.189545 517.832336,235.678024 519.446960,207.425842 
	C522.144653,211.219620 521.999939,215.531433 522.231384,219.773117 
	C522.466675,224.083221 522.799255,228.388046 523.106567,233.163025 
z"/>
<path fill="#000000" opacity="1.000000" stroke="none" 
	d="
M209.277618,295.580627 
	C201.113800,298.797272 193.901321,295.993500 186.745407,293.349426 
	C184.489136,292.515747 183.372009,290.769318 185.035233,288.197235 
	C188.916367,282.195221 201.282349,277.036804 207.889450,278.828918 
	C212.044189,279.955872 215.367722,282.361755 215.804733,286.791168 
	C216.224411,291.044830 213.674835,293.947693 209.277618,295.580627 
z"/>
<path fill="#000000" opacity="1.000000" stroke="none" 
	d="
M509.574158,421.773285 
	C510.243408,420.281342 510.328186,418.860779 512.985474,417.258606 
	C510.519073,423.112183 512.162109,428.991211 506.762787,433.304352 
	C505.440125,428.545746 508.687256,425.631256 509.574158,421.773285 
z"/>
<path fill="#000000" opacity="1.000000" stroke="none" 
	d="
M202.995972,316.078247 
	C199.998413,315.970673 197.403641,317.499420 193.722946,315.548065 
	C200.070892,313.498840 205.677963,313.379395 211.347992,313.463593 
	C209.125351,315.762390 206.002350,315.054230 202.995972,316.078247 
z"/>
<path fill="#000000" opacity="1.000000" stroke="none" 
	d="
M165.180725,447.072144 
	C164.039917,450.256653 162.425293,452.876160 162.232239,455.945038 
	C162.101608,458.021667 162.456940,460.066284 164.412506,461.191071 
	C166.519043,462.402740 167.743332,460.548706 169.138077,459.448456 
	C171.095825,457.904022 172.900787,456.074493 175.060562,454.898438 
	C178.560135,452.992828 181.105576,454.376892 181.090912,458.328461 
	C181.054413,468.160431 181.692490,477.959351 181.981979,487.770721 
	C182.253540,496.973785 175.592514,500.862335 167.351685,497.120605 
	C167.049759,496.983521 166.780640,496.707489 166.472046,496.662598 
	C164.255508,496.340332 161.428986,498.528412 159.956482,495.191071 
	C158.593842,492.102783 157.797852,488.774719 158.360107,485.463226 
	C159.073563,481.261169 159.090363,477.113464 158.023087,473.071930 
	C155.574249,463.798706 159.914963,455.386200 161.063583,446.576813 
	C162.316971,436.963867 166.422714,428.537445 172.304565,420.812897 
	C171.153732,429.764984 167.468262,438.032166 165.180725,447.072144 
z"/>
<path fill="#000000" opacity="1.000000" stroke="none" 
	d="
M268.300354,544.309082 
	C270.922546,542.574646 273.234558,541.029053 275.703339,539.378723 
	C275.845764,544.823547 271.202850,549.593628 264.041901,551.756104 
	C257.910187,553.607666 251.846222,551.955566 248.735397,547.024109 
	C255.763870,548.543457 262.372070,549.429382 268.300354,544.309082 
z"/>
<path fill="#000000" opacity="1.000000" stroke="none" 
	d="
M300.795532,571.374023 
	C303.005951,569.954285 304.123444,567.176758 307.504028,567.689270 
	C307.067413,571.766357 304.731476,573.636536 301.141663,573.841675 
	C298.824860,573.974060 299.113129,572.770142 300.795532,571.374023 
z"/>
</svg>